<?xml version="1.0" encoding="UTF-8" standalone="no"?>
<svg
   xmlns:dc="http://purl.org/dc/elements/1.1/"
   xmlns:cc="http://creativecommons.org/ns#"
   xmlns:rdf="http://www.w3.org/1999/02/22-rdf-syntax-ns#"
   xmlns:svg="http://www.w3.org/2000/svg"
   xmlns="http://www.w3.org/2000/svg"
   xmlns:sodipodi="http://sodipodi.sourceforge.net/DTD/sodipodi-0.dtd"
   xmlns:inkscape="http://www.inkscape.org/namespaces/inkscape"
   version="1.1"
   width="2785.5867"
   height="568.40979"
   id="svg154"
   sodipodi:docname="codefrog-logo-black-transparent.svg"
   inkscape:version="0.92.3 (2405546, 2018-03-11)">
  <metadata
     id="metadata160">
    <rdf:RDF>
      <cc:Work
         rdf:about="">
        <dc:format>image/svg+xml</dc:format>
        <dc:type
           rdf:resource="http://purl.org/dc/dcmitype/StillImage" />
        <dc:title></dc:title>
      </cc:Work>
    </rdf:RDF>
  </metadata>
  <defs
     id="defs158" />
  <sodipodi:namedview
     pagecolor="#ffffff"
     bordercolor="#666666"
     borderopacity="1"
     objecttolerance="10"
     gridtolerance="10"
     guidetolerance="10"
     inkscape:pageopacity="0"
     inkscape:pageshadow="2"
     inkscape:window-width="2560"
     inkscape:window-height="1385"
     id="namedview156"
     showgrid="false"
     fit-margin-top="0"
     fit-margin-left="0"
     fit-margin-right="0"
     fit-margin-bottom="0"
     inkscape:zoom="0.64240548"
     inkscape:cx="1285.5866"
     inkscape:cy="391.4116"
     inkscape:window-x="0"
     inkscape:window-y="27"
     inkscape:window-maximized="1"
     inkscape:current-layer="svg154" />
  <g
     transform="matrix(8.9338892,0,0,8.9338892,-214.41334,-214.4134)"
     id="g152">
    <defs
       id="SvgjsDefs1066" />
    <g
       id="SvgjsG1067"
       featureKey="symbolFeature-0"
       transform="translate(18.077,5.812006)"
       style="fill:#000000">
      <polygon
         points="22.826,34.558 24.702,31.476 26.705,31.678 28.486,30.198 28.719,27.875 27.27,26.071 24.986,25.841 23.205,27.32 22.972,29.643 24.288,31.282 22.396,34.389 18.213,34.093 17.591,30.504 19.155,29.167 19.356,26.842 17.882,25.056 15.595,24.858 13.834,26.362 13.634,28.688 15.108,30.473 17.155,30.65 17.782,34.261 17.785,34.261 14.64,37.037 11.692,35.398 11.829,33.461 10.327,31.7 8.035,31.538 6.301,33.071 6.136,35.399 7.639,37.159 9.93,37.321 11.586,35.858 14.409,37.428 14.1,41.816 11.437,42.918 10.112,41.368 7.823,41.206 6.086,42.738 5.923,45.066 7.426,46.827 9.716,46.989 11.452,45.457 11.602,43.341 14.273,42.235 17.176,45.634 21.885,45.967 25.482,42.394 25.79,38.03 "
         id="polygon106" />
      <polygon
         points="77.176,34.558 75.299,31.476 73.295,31.678 71.515,30.198 71.281,27.875 72.73,26.071 75.014,25.841 76.795,27.32 77.028,29.643 75.712,31.282 77.604,34.389 81.786,34.093 82.41,30.504 80.846,29.167 80.644,26.842 82.118,25.056 84.405,24.858 86.166,26.362 86.367,28.688 84.894,30.473 82.845,30.65 82.22,34.261 82.215,34.261 85.36,37.037 88.308,35.398 88.172,33.461 89.675,31.7 91.965,31.538 93.7,33.071 93.865,35.399 92.361,37.159 90.07,37.321 88.415,35.858 85.591,37.428 85.901,41.816 88.564,42.918 89.888,41.368 92.177,41.206 93.914,42.738 94.077,45.066 92.574,46.827 90.285,46.989 88.55,45.457 88.399,43.341 85.728,42.235 82.825,45.634 78.116,45.967 74.518,42.394 74.21,38.03 "
         id="polygon108" />
      <polygon
         points="58.642,63.1 59.547,64.004 60.827,64.004 61.732,63.1 61.732,61.819 60.827,60.914 59.547,60.914 58.642,61.819 "
         id="polygon110" />
      <polygon
         points="29.184,65.013 30.54,66.369 32.459,66.369 33.815,65.013 33.815,63.093 32.459,61.737 30.54,61.737 29.184,63.093 "
         id="polygon112" />
      <polygon
         points="44.18,73.255 44.5,73.575 44.953,73.575 45.273,73.255 45.273,72.802 44.953,72.481 44.5,72.481 44.18,72.802 "
         id="polygon114" />
      <polygon
         points="43.535,46.502 41.322,44.288 38.19,44.288 35.977,46.502 35.977,49.633 38.19,51.847 41.322,51.847 43.535,49.633 "
         id="polygon116" />
      <polygon
         points="29.572,71.793 30.258,72.478 31.227,72.478 31.911,71.793 31.911,70.823 31.227,70.139 30.258,70.139 29.572,70.823 "
         id="polygon118" />
      <polygon
         points="38.618,61.424 39.98,62.788 41.908,62.788 43.271,61.424 43.271,59.496 41.908,58.133 39.98,58.133 38.618,59.496 "
         id="polygon120" />
      <polygon
         points="49.049,77.242 49.817,78.011 50.904,78.011 51.672,77.242 51.672,76.154 50.904,75.388 49.817,75.388 49.049,76.154 "
         id="polygon122" />
      <polygon
         points="46.629,68.017 49.217,70.602 52.873,70.602 55.46,68.017 55.46,64.358 52.873,61.771 49.217,61.771 46.629,64.358 "
         id="polygon124" />
      <polygon
         points="55.345,54.477 57.312,56.442 60.091,56.442 62.057,54.477 62.057,51.697 60.091,49.73 57.312,49.73 55.345,51.697 "
         id="polygon126" />
      <polygon
         points="73.849,59.197 74.753,60.104 76.033,60.104 76.939,59.197 76.939,57.917 76.033,57.013 74.753,57.013 73.849,57.917 "
         id="polygon128" />
      <polygon
         points="61.734,45.697 61.414,45.377 60.961,45.377 60.641,45.697 60.641,46.15 60.961,46.47 61.414,46.47 61.734,46.15 "
         id="polygon130" />
      <polygon
         points="54.008,46.088 53.104,45.184 51.823,45.184 50.918,46.088 50.918,47.369 51.823,48.274 53.104,48.274 54.008,47.369 "
         id="polygon132" />
      <path
         d="m 78.261,49.071 -4.599,-0.908 -5.326,3.691 -2.542,4.357 1.19,-19.408 -2.822,-6.863 1.098,-1.325 1.361,-4.162 -2.436,-4.679 -5.032,-1.586 -4.68,2.437 -0.688,2.183 -3.785,-0.683 -3.786,0.683 -0.688,-2.183 -4.68,-2.437 -5.032,1.586 -2.436,4.679 1.307,4.144 1.154,1.343 -2.824,6.863 1.19,19.408 -2.542,-4.357 -5.326,-3.691 -4.599,0.908 -2.361,4.6 0.606,5.688 5.81,12.042 8.23,10.168 h 2.178 l 1.332,-1.695 -0.544,-13.011 8.108,12.89 2.542,1.816 2.361,0.243 2.36,-0.242 2.542,-1.816 8.108,-12.89 -0.544,13.011 1.331,1.695 h 2.178 L 74.205,71.402 80.016,59.36 80.62,53.672 Z M 50.01,45.712 51.448,44.275 h 2.032 l 1.437,1.437 v 2.031 L 53.48,49.181 H 51.448 L 50.01,47.743 Z m -4.771,7.796 2.072,-2.072 h 2.931 l 2.072,2.072 v 2.931 l -2.072,2.072 h -2.931 l -2.072,-2.072 z m -9.99,-29.09 1.697,-3.29 3.527,-1.125 3.289,1.697 1.125,3.527 -1.698,3.29 -3.527,1.125 -3.288,-1.698 z M 27.622,60.3 26.184,61.738 H 24.152 L 22.715,60.3 v -2.032 l 1.437,-1.438 h 2.032 l 1.438,1.438 z m 5.197,11.868 -1.216,1.218 h -1.721 l -1.216,-1.218 v -1.72 l 1.216,-1.216 h 1.721 l 1.216,1.216 z m 1.905,-6.78 -1.889,1.888 h -2.67 l -1.889,-1.888 v -2.67 l 1.889,-1.889 h 2.67 l 1.889,1.889 z m 0.344,-15.38 v -3.882 l 2.747,-2.746 h 3.883 l 2.745,2.746 v 3.882 l -2.745,2.747 H 37.815 Z M 39.605,63.695 37.711,61.8 v -2.679 l 1.895,-1.896 h 2.679 l 1.895,1.896 V 61.8 l -1.895,1.896 h -2.68 z m 6.575,9.937 -0.852,0.852 h -1.204 l -0.853,-0.852 v -1.205 l 0.853,-0.852 h 1.204 l 0.852,0.852 z m 6.399,3.986 -1.299,1.3 h -1.839 l -1.3,-1.3 v -1.839 l 1.3,-1.3 h 1.839 l 1.299,1.3 z m 3.789,-9.226 -3.118,3.119 h -4.41 l -3.118,-3.119 v -4.409 l 3.118,-3.118 h 4.41 l 3.118,3.118 z m 6.272,-4.917 -1.436,1.438 h -2.032 l -1.438,-1.438 v -2.032 l 1.438,-1.437 h 2.032 l 1.436,1.437 z m 0.325,-8.621 -2.498,2.497 h -3.532 l -2.498,-2.497 v -3.531 l 2.498,-2.499 h 3.532 l 2.498,2.499 z m -3.232,-8.328 v -1.205 l 0.852,-0.852 h 1.205 l 0.853,0.852 v 1.205 l -0.853,0.853 h -1.205 z m 3.792,-18.497 -3.286,1.705 -3.528,-1.119 -1.705,-3.286 1.118,-3.528 3.287,-1.705 3.528,1.119 1.705,3.286 z m 8.371,43.414 -1.216,1.216 h -1.722 l -1.216,-1.216 v -1.722 l 1.216,-1.217 h 1.722 l 1.216,1.217 z m 0.39,-6.781 -1.889,1.888 h -2.67 l -1.89,-1.888 v -2.671 l 1.89,-1.888 h 2.67 l 1.889,1.888 z m 5.562,-5.088 -1.438,1.438 H 74.378 L 72.94,59.574 v -2.032 l 1.438,-1.438 h 2.032 l 1.438,1.438 z"
         id="path134"
         inkscape:connector-curvature="0" />
      <polygon
         points="51.405,53.885 49.865,52.344 47.688,52.344 46.146,53.885 46.146,56.062 47.688,57.604 49.865,57.604 51.405,56.062 "
         id="polygon136" />
      <polygon
         points="23.623,59.925 24.528,60.829 25.809,60.829 26.713,59.925 26.713,58.644 25.809,57.738 24.528,57.738 23.623,58.644 "
         id="polygon138" />
      <polygon
         points="68.651,71.066 69.335,71.752 70.304,71.752 70.989,71.066 70.989,70.098 70.304,69.413 69.335,69.413 68.651,70.098 "
         id="polygon140" />
      <polygon
         points="66.746,64.286 68.103,65.642 70.022,65.642 71.378,64.286 71.378,62.367 70.022,61.012 68.103,61.012 66.746,62.367 "
         id="polygon142" />
      <polygon
         points="56.94,25.414 57.609,23.301 59.577,22.281 61.688,22.95 62.71,24.917 62.041,27.03 60.073,28.051 57.961,27.381 "
         id="polygon144" />
      <polygon
         points="37.141,24.829 38.156,22.86 40.267,22.185 42.237,23.203 42.91,25.313 41.893,27.283 39.783,27.957 37.814,26.94 "
         id="polygon146" />
    </g>
    <g
       id="SvgjsG1068"
       featureKey="nkYPRc-0"
       transform="matrix(2.425935,0,0,2.425935,136,19.44439)"
       style="fill:#000000">
      <path
         d="m 7,6 h 0.36 c 2.2,0 4.06,0.96 5.62,2.88 l -0.06,0.04 h -2 C 9.78,7.96 8.62,7.48 7.4,7.48 H 6.96 c -1.76,0 -3.24,0.86 -4.5,2.6 -0.54,0.98 -0.82,1.96 -0.82,2.92 0,1.94 0.88,3.5 2.64,4.7 0.9,0.54 1.82,0.82 2.8,0.82 h 0.2 c 1.3,0 2.5,-0.48 3.64,-1.44 h 2 c 0.06,0 0.06,0.04 0.06,0.08 C 11.38,19.06 9.5,20 7.32,20 H 7.04 C 4.54,20 2.5,18.82 0.9,16.46 0.3,15.3 0,14.22 0,13.2 V 12.8 C 0,10.56 1.08,8.66 3.24,7.12 4.48,6.36 5.72,6 7,6 Z m 11.96,4 h 0.24 c 1.76,0 3.2,0.82 4.3,2.42 0.5,0.8 0.74,1.66 0.74,2.62 0,1.8 -0.86,3.24 -2.58,4.32 C 20.88,19.78 20.12,20 19.42,20 h -0.7 c -1.26,0 -2.48,-0.6 -3.66,-1.84 -0.74,-0.98 -1.1,-2 -1.1,-3.06 v -0.28 c 0,-1.68 0.86,-3.08 2.62,-4.22 C 17.4,10.2 18.2,10 18.96,10 Z m -3.58,4.86 v 0.32 c 0,1.2 0.6,2.2 1.8,3.04 0.64,0.34 1.22,0.5 1.74,0.5 h 0.36 c 1.26,0 2.32,-0.68 3.16,-2.02 0.26,-0.6 0.38,-1.14 0.38,-1.66 V 15 c 0,-1.56 -0.78,-2.72 -2.36,-3.48 -0.48,-0.16 -0.94,-0.24 -1.36,-0.24 -1.62,0 -2.8,0.84 -3.54,2.52 -0.12,0.42 -0.18,0.78 -0.18,1.06 z m 20.06,5.08 C 35.44,19.98 35.4,20 35.36,20 H 34.1 c -0.06,0 -0.08,-0.02 -0.08,-0.06 v -1.46 c -1.08,1 -2.3,1.52 -3.66,1.52 -0.98,0 -1.88,-0.24 -2.66,-0.7 -1.68,-1.08 -2.5,-2.48 -2.5,-4.24 0,-0.9 0.2,-1.7 0.6,-2.4 1.08,-1.76 2.58,-2.66 4.52,-2.66 1.4,0 2.64,0.52 3.7,1.54 V 6.72 c 0,-0.04 0.02,-0.06 0.08,-0.06 h 1.26 c 0.04,0 0.08,0.02 0.08,0.06 z m -5.08,-8.66 c -0.38,0 -0.84,0.1 -1.38,0.26 -1.58,0.76 -2.36,1.92 -2.36,3.46 v 0.02 c 0,0.54 0.1,1.06 0.34,1.56 0.78,1.44 1.92,2.16 3.4,2.16 0.36,0 0.86,-0.12 1.48,-0.34 1.46,-0.82 2.18,-1.9 2.18,-3.24 V 14.84 C 34.02,14.46 33.9,14 33.7,13.44 32.88,12 31.78,11.28 30.36,11.28 Z M 41.4,10 h 0.24 c 1.9,0 3.42,0.92 4.52,2.76 0.36,0.72 0.52,1.48 0.52,2.3 0,0.42 -0.02,0.66 -0.1,0.66 H 37.9 v 0.02 c 0.06,0.58 0.4,1.24 1.02,1.96 0.82,0.68 1.62,1.02 2.44,1.02 h 0.36 c 0.9,0 1.76,-0.4 2.6,-1.2 h 1.58 c 0.04,0 0.08,0.02 0.08,0.06 C 44.8,19.18 43.42,20 41.86,20 h -0.7 c -1.26,0 -2.48,-0.6 -3.66,-1.84 -0.74,-0.98 -1.1,-2 -1.1,-3.06 v -0.28 c 0,-1.68 0.86,-3.08 2.62,-4.22 0.82,-0.4 1.62,-0.6 2.38,-0.6 z m -3.5,4.28 h 7.3 c -0.04,-0.5 -0.38,-1.12 -1,-1.9 -0.8,-0.72 -1.7,-1.1 -2.66,-1.1 -1.38,0 -2.46,0.64 -3.26,1.92 -0.26,0.52 -0.38,0.88 -0.38,1.08 z m 15.4,-2.14 v 1.42 h -4.16 v 6.36 C 49.14,19.98 49.1,20 49.06,20 H 47.74 C 47.68,19.98 47.66,19.96 47.66,19.92 V 10.5 c 0,-1.52 0.9,-2.8 2.72,-3.84 C 51.28,6.22 52.2,6 53.18,6 h 0.12 v 1.58 c -1.58,0 -2.84,0.66 -3.74,1.96 -0.28,0.5 -0.42,1.06 -0.42,1.68 v 0.92 z M 54.32,10 h 1.28 c 0.04,0 0.08,0.02 0.08,0.06 v 1.46 C 56.76,10.5 57.94,10 59.26,10 h 0.06 c 0.06,0 0.08,0.02 0.08,0.06 v 1.14 c 0,0.06 -0.32,0.12 -0.96,0.18 -0.96,0.3 -1.68,0.84 -2.2,1.6 -0.38,0.68 -0.56,1.32 -0.56,1.88 v 5.08 c 0,0.04 -0.04,0.06 -0.08,0.06 h -1.28 c -0.04,0 -0.06,-0.02 -0.06,-0.06 v -9.88 c 0,-0.04 0.02,-0.06 0.06,-0.06 z m 11.06,0 h 0.24 c 1.76,0 3.2,0.82 4.3,2.42 0.5,0.8 0.74,1.66 0.74,2.62 0,1.8 -0.86,3.24 -2.58,4.32 C 67.3,19.78 66.54,20 65.84,20 h -0.7 c -1.26,0 -2.48,-0.6 -3.66,-1.84 -0.74,-0.98 -1.1,-2 -1.1,-3.06 v -0.28 c 0,-1.68 0.86,-3.08 2.62,-4.22 0.82,-0.4 1.62,-0.6 2.38,-0.6 z m -3.58,4.86 v 0.32 c 0,1.2 0.6,2.2 1.8,3.04 0.64,0.34 1.22,0.5 1.74,0.5 h 0.36 c 1.26,0 2.32,-0.68 3.16,-2.02 0.26,-0.6 0.38,-1.14 0.38,-1.66 V 15 c 0,-1.56 -0.78,-2.72 -2.36,-3.48 -0.48,-0.16 -0.94,-0.24 -1.36,-0.24 -1.62,0 -2.8,0.84 -3.54,2.52 -0.12,0.42 -0.18,0.78 -0.18,1.06 z M 76.84,10 h 0.26 c 1.38,0 2.64,0.54 3.78,1.6 V 10.08 C 80.9,10.02 80.92,10 80.96,10 h 1.34 c 0.04,0 0.06,0.04 0.06,0.08 v 9.34 c 0,1.76 -0.94,3.1 -2.82,4.02 -0.78,0.38 -1.62,0.56 -2.58,0.56 -2.18,0 -3.82,-0.9 -4.92,-2.7 v -0.08 h 1.84 c 0.86,0.82 1.82,1.24 2.88,1.24 h 0.42 c 1.38,0 2.48,-0.6 3.32,-1.82 0.28,-0.46 0.42,-0.92 0.42,-1.34 v -0.48 c -1.14,1.12 -2.44,1.66 -3.92,1.66 -2.12,0 -3.78,-1 -4.94,-3.06 -0.3,-0.74 -0.44,-1.42 -0.44,-2.08 v -0.3 c 0,-1.76 0.92,-3.24 2.74,-4.42 C 75.22,10.2 76.04,10 76.84,10 Z m -3.74,5.08 v 0.34 c 0,1.24 0.62,2.3 1.88,3.18 0.66,0.34 1.26,0.52 1.82,0.52 h 0.38 c 1.16,0 2.16,-0.56 3.04,-1.7 0.44,-0.68 0.66,-1.44 0.66,-2.28 0,-1.48 -0.78,-2.64 -2.3,-3.48 -0.56,-0.22 -1.08,-0.32 -1.58,-0.32 -1.68,0 -2.94,0.86 -3.72,2.62 -0.12,0.44 -0.18,0.82 -0.18,1.12 z"
         id="path149"
         inkscape:connector-curvature="0" />
    </g>
  </g>
</svg>
