<?xml version="1.0" encoding="utf-8"?>
<!-- Generator: Adobe Illustrator 16.0.0, SVG Export Plug-In . SVG Version: 6.00 Build 0)  -->
<!DOCTYPE svg PUBLIC "-//W3C//DTD SVG 1.1//EN" "http://www.w3.org/Graphics/SVG/1.1/DTD/svg11.dtd">
<svg version="1.1"
	 id="svg154" sodipodi:docname="codefrog-logo-black-transparent.svg" inkscape:version="0.92.3 (2405546, 2018-03-11)" xmlns:dc="http://purl.org/dc/elements/1.1/" xmlns:cc="http://creativecommons.org/ns#" xmlns:rdf="http://www.w3.org/1999/02/22-rdf-syntax-ns#" xmlns:svg="http://www.w3.org/2000/svg" xmlns:sodipodi="http://sodipodi.sourceforge.net/DTD/sodipodi-0.dtd" xmlns:inkscape="http://www.inkscape.org/namespaces/inkscape"
	 xmlns="http://www.w3.org/2000/svg" xmlns:xlink="http://www.w3.org/1999/xlink" x="0px" y="0px" width="16px" height="16px"
	 viewBox="74.917 0 16 16" enable-background="new 74.917 0 16 16" xml:space="preserve">
<g id="g152" transform="matrix(8.9338892,0,0,8.9338892,-214.41334,-214.4134)">
	<g id="SvgjsG1067" transform="translate(18.077,5.812006)">
		<g>
			<polygon points="8.525,19.778 8.801,19.324 9.096,19.353 9.359,19.135 9.393,18.794 9.179,18.528 8.842,18.495 8.58,18.713 
				8.546,19.054 8.74,19.295 8.461,19.753 7.845,19.71 7.753,19.181 7.985,18.984 8.013,18.641 7.797,18.378 7.46,18.349 
				7.2,18.571 7.171,18.913 7.387,19.177 7.689,19.202 7.781,19.735 7.782,19.735 7.319,20.143 6.885,19.902 6.905,19.617 
				6.684,19.358 6.346,19.334 6.091,19.559 6.067,19.902 6.288,20.161 6.625,20.185 6.869,19.969 7.285,20.201 7.24,20.848 
				6.847,21.009 6.653,20.781 6.315,20.757 6.059,20.983 6.035,21.326 6.256,21.585 6.594,21.609 6.849,21.384 6.872,21.072 
				7.264,20.908 7.692,21.41 8.387,21.459 8.915,20.932 8.961,20.289 			"/>
		</g>
	</g>
</g>
<g id="g152_1_" transform="matrix(8.9338892,0,0,8.9338892,-214.41334,-214.4134)">
	<g id="SvgjsG1067_1_" transform="translate(18.077,5.812006)">
		<g>
			<polygon points="15.601,18.985 15.736,18.762 15.881,18.777 16.01,18.67 16.026,18.503 15.922,18.373 15.757,18.357 
				15.628,18.463 15.611,18.63 15.707,18.749 15.57,18.973 15.268,18.952 15.223,18.693 15.337,18.597 15.351,18.428 15.245,18.3 
				15.08,18.285 14.953,18.394 14.939,18.562 15.044,18.691 15.192,18.703 15.237,18.964 15.238,18.964 15.011,19.164 
				14.799,19.046 14.808,18.906 14.7,18.779 14.534,18.768 14.409,18.878 14.398,19.046 14.506,19.173 14.671,19.184 14.79,19.079 
				14.994,19.192 14.972,19.509 14.78,19.588 14.685,19.476 14.519,19.465 14.394,19.575 14.382,19.743 14.49,19.87 14.656,19.882 
				14.781,19.771 14.792,19.619 14.984,19.538 15.194,19.784 15.534,19.808 15.793,19.55 15.815,19.236 			"/>
		</g>
	</g>
</g>
<g id="g152_2_" transform="matrix(8.9338892,0,0,8.9338892,-214.41334,-214.4134)">
	<g id="SvgjsG1067_2_" transform="translate(18.077,5.812006)">
		<g>
			<polygon points="-3.181,27.684 -1.464,24.855 0.375,25.042 2.009,23.684 2.22,21.564 0.89,19.904 -1.207,19.698 -2.839,21.055 
				-3.052,23.177 -1.842,24.68 -3.579,27.529 -7.411,27.259 -7.983,23.967 -6.543,22.746 -6.363,20.612 -7.713,18.972 
				-9.809,18.791 -11.423,20.175 -11.603,22.302 -10.259,23.941 -8.381,24.102 -7.809,27.413 -7.803,27.413 -10.683,29.952 
				-13.383,28.455 -13.261,26.681 -14.637,25.068 -16.739,24.92 -18.327,26.321 -18.475,28.455 -17.099,30.068 -15.003,30.216 
				-13.486,28.872 -10.895,30.313 -11.178,34.338 -13.621,35.34 -14.829,33.927 -16.932,33.778 -18.526,35.18 -18.674,37.314 
				-17.298,38.927 -15.196,39.076 -13.608,37.675 -13.466,35.732 -11.024,34.716 -8.362,37.835 -4.042,38.144 -0.751,34.866 
				-0.468,30.865 			"/>
		</g>
		<g id="SvgjsG1067_3_" transform="translate(18.077,5.812006)">
			<g>
				<polygon points="-56.109,37.7 -51.519,30.164 -46.599,30.661 -42.232,27.043 -41.667,21.393 -45.224,16.971 -50.83,16.422 
					-55.196,20.037 -55.764,25.691 -52.53,29.696 -57.173,37.287 -67.42,36.569 -68.95,27.798 -65.1,24.542 -64.619,18.856 
					-68.227,14.488 -73.833,14.005 -78.149,17.692 -78.63,23.36 -75.037,27.728 -70.016,28.156 -68.486,36.979 -68.469,36.979 
					-76.172,43.745 -83.391,39.755 -83.066,35.028 -86.745,30.73 -92.365,30.335 -96.612,34.068 -97.007,39.755 -93.329,44.053 
					-87.724,44.449 -83.666,40.868 -76.739,44.706 -77.495,55.432 -84.027,58.103 -87.259,54.337 -92.882,53.938 -97.144,57.675 
					-97.541,63.362 -93.861,67.66 -88.24,68.056 -83.992,64.322 -83.613,59.146 -77.081,56.439 -69.965,64.75 -58.412,65.573 
					-49.611,56.838 -48.855,46.177 				"/>
			</g>
		</g>
		<g>
			<polygon points="43.371,27.795 44.935,25.22 46.61,25.389 48.097,24.153 48.29,22.222 47.078,20.71 45.169,20.523 43.682,21.758 
				43.489,23.691 44.59,25.06 43.009,27.654 39.519,27.409 38.998,24.411 40.309,23.298 40.473,21.355 39.244,19.862 37.335,19.697 
				35.865,20.957 35.701,22.894 36.925,24.387 38.635,24.533 39.156,27.549 39.162,27.549 36.539,29.861 34.08,28.498 
				34.191,26.882 32.938,25.413 31.024,25.278 29.577,26.554 29.443,28.498 30.695,29.967 32.604,30.102 33.986,28.878 
				36.346,30.19 36.088,33.856 33.863,34.769 32.762,33.481 30.848,33.345 29.396,34.622 29.261,36.566 30.514,38.035 32.428,38.17 
				33.875,36.894 34.004,35.125 36.229,34.2 38.653,37.04 42.587,37.322 45.584,34.336 45.842,30.693 			"/>
		</g>
	</g>
</g>
</svg>
