
		<svg xmlns="http://www.w3.org/2000/svg" xmlns:xlink="http://www.w3.org/1999/xlink" version="1.1" width="3178.6777843954737" height="961.5008982964538">
			
			<g transform="scale(8.933889219773674) translate(10, 10)">
				<defs id="SvgjsDefs1066"/><g id="SvgjsG1067" featureKey="symbolFeature-0" transform="matrix(1,0,0,1,18.0770001411438,5.812005996704102)" fill="#000"><polygon xmlns="http://www.w3.org/2000/svg" points="25.482,42.394 25.79,38.03 22.826,34.558 24.702,31.476 26.705,31.678 28.486,30.198 28.719,27.875 27.27,26.071   24.986,25.841 23.205,27.32 22.972,29.643 24.288,31.282 22.396,34.389 18.213,34.093 17.591,30.504 19.155,29.167 19.356,26.842   17.882,25.056 15.595,24.858 13.834,26.362 13.634,28.688 15.108,30.473 17.155,30.65 17.782,34.261 17.785,34.261 14.64,37.037   11.692,35.398 11.829,33.461 10.327,31.7 8.035,31.538 6.301,33.071 6.136,35.399 7.639,37.159 9.93,37.321 11.586,35.858   14.409,37.428 14.1,41.816 11.437,42.918 10.112,41.368 7.823,41.206 6.086,42.738 5.923,45.066 7.426,46.827 9.716,46.989   11.452,45.457 11.602,43.341 14.273,42.235 17.176,45.634 21.885,45.967 "/><polygon xmlns="http://www.w3.org/2000/svg" points="74.518,42.394 74.21,38.03 77.176,34.558 75.299,31.476 73.295,31.678 71.515,30.198 71.281,27.875 72.73,26.071   75.014,25.841 76.795,27.32 77.028,29.643 75.712,31.282 77.604,34.389 81.786,34.093 82.41,30.504 80.846,29.167 80.644,26.842   82.118,25.056 84.405,24.858 86.166,26.362 86.367,28.688 84.894,30.473 82.845,30.65 82.22,34.261 82.215,34.261 85.36,37.037   88.308,35.398 88.172,33.461 89.675,31.7 91.965,31.538 93.7,33.071 93.865,35.399 92.361,37.159 90.07,37.321 88.415,35.858   85.591,37.428 85.901,41.816 88.564,42.918 89.888,41.368 92.177,41.206 93.914,42.738 94.077,45.066 92.574,46.827 90.285,46.989   88.55,45.457 88.399,43.341 85.728,42.235 82.825,45.634 78.116,45.967 "/><polygon xmlns="http://www.w3.org/2000/svg" points="59.547,60.914 58.642,61.819 58.642,63.1 59.547,64.004 60.827,64.004 61.732,63.1 61.732,61.819 60.827,60.914 "/><polygon xmlns="http://www.w3.org/2000/svg" points="30.54,61.737 29.184,63.093 29.184,65.013 30.54,66.369 32.459,66.369 33.815,65.013 33.815,63.093 32.459,61.737   "/><polygon xmlns="http://www.w3.org/2000/svg" points="44.5,72.481 44.18,72.802 44.18,73.255 44.5,73.575 44.953,73.575 45.273,73.255 45.273,72.802 44.953,72.481 "/><polygon xmlns="http://www.w3.org/2000/svg" points="41.322,51.847 43.535,49.633 43.535,46.502 41.322,44.288 38.19,44.288 35.977,46.502 35.977,49.633 38.19,51.847   "/><polygon xmlns="http://www.w3.org/2000/svg" points="30.258,70.139 29.572,70.823 29.572,71.793 30.258,72.478 31.227,72.478 31.911,71.793 31.911,70.823   31.227,70.139 "/><polygon xmlns="http://www.w3.org/2000/svg" points="39.98,58.133 38.618,59.496 38.618,61.424 39.98,62.788 41.908,62.788 43.271,61.424 43.271,59.496 41.908,58.133   "/><polygon xmlns="http://www.w3.org/2000/svg" points="49.817,75.388 49.049,76.154 49.049,77.242 49.817,78.011 50.904,78.011 51.672,77.242 51.672,76.154   50.904,75.388 "/><polygon xmlns="http://www.w3.org/2000/svg" points="49.217,61.771 46.629,64.358 46.629,68.017 49.217,70.602 52.873,70.602 55.46,68.017 55.46,64.358 52.873,61.771   "/><polygon xmlns="http://www.w3.org/2000/svg" points="57.312,49.73 55.345,51.697 55.345,54.477 57.312,56.442 60.091,56.442 62.057,54.477 62.057,51.697 60.091,49.73   "/><polygon xmlns="http://www.w3.org/2000/svg" points="74.753,57.013 73.849,57.917 73.849,59.197 74.753,60.104 76.033,60.104 76.939,59.197 76.939,57.917   76.033,57.013 "/><polygon xmlns="http://www.w3.org/2000/svg" points="61.414,46.47 61.734,46.15 61.734,45.697 61.414,45.377 60.961,45.377 60.641,45.697 60.641,46.15 60.961,46.47 "/><polygon xmlns="http://www.w3.org/2000/svg" points="53.104,48.274 54.008,47.369 54.008,46.088 53.104,45.184 51.823,45.184 50.918,46.088 50.918,47.369   51.823,48.274 "/><path xmlns="http://www.w3.org/2000/svg" d="M78.261,49.071l-4.599-0.908l-5.326,3.691l-2.542,4.357l1.19-19.408l-2.822-6.863l1.098-1.325l1.361-4.162l-2.436-4.679  l-5.032-1.586l-4.68,2.437l-0.688,2.183L50,22.125l-3.786,0.683l-0.688-2.183l-4.68-2.437l-5.032,1.586l-2.436,4.679l1.307,4.144  l1.154,1.343l-2.824,6.863l1.19,19.408l-2.542-4.357l-5.326-3.691l-4.599,0.908l-2.361,4.6l0.606,5.688l5.81,12.042l8.23,10.168  h2.178l1.332-1.695l-0.544-13.011l8.108,12.89l2.542,1.816L50,81.812l2.36-0.242l2.542-1.816l8.108-12.89l-0.544,13.011l1.331,1.695  h2.178l8.23-10.168l5.811-12.042l0.604-5.688L78.261,49.071z M50.01,45.712l1.438-1.437h2.032l1.437,1.437v2.031l-1.437,1.438  h-2.032l-1.438-1.438V45.712z M45.239,53.508l2.072-2.072h2.931l2.072,2.072v2.931l-2.072,2.072h-2.931l-2.072-2.072V53.508z   M35.249,24.418l1.697-3.29l3.527-1.125l3.289,1.697l1.125,3.527l-1.698,3.29l-3.527,1.125l-3.288-1.698L35.249,24.418z   M27.622,60.3l-1.438,1.438h-2.032L22.715,60.3v-2.032l1.437-1.438h2.032l1.438,1.438V60.3z M32.819,72.168l-1.216,1.218h-1.721  l-1.216-1.218v-1.72l1.216-1.216h1.721l1.216,1.216V72.168z M34.724,65.388l-1.889,1.888h-2.67l-1.889-1.888v-2.67l1.889-1.889h2.67  l1.889,1.889V65.388z M35.068,50.008v-3.882l2.747-2.746h3.883l2.745,2.746v3.882l-2.745,2.747h-3.883L35.068,50.008z   M39.605,63.695L37.711,61.8v-2.679l1.895-1.896h2.679l1.895,1.896V61.8l-1.895,1.896H39.605z M46.18,73.632l-0.852,0.852h-1.204  l-0.853-0.852v-1.205l0.853-0.852h1.204l0.852,0.852V73.632z M52.579,77.618l-1.299,1.3h-1.839l-1.3-1.3v-1.839l1.3-1.3h1.839  l1.299,1.3V77.618z M56.368,68.392l-3.118,3.119h-4.41l-3.118-3.119v-4.409l3.118-3.118h4.41l3.118,3.118V68.392z M62.64,63.475  l-1.436,1.438h-2.032l-1.438-1.438v-2.032l1.438-1.437h2.032l1.436,1.437V63.475z M62.965,54.854l-2.498,2.497h-3.532l-2.498-2.497  v-3.531l2.498-2.499h3.532l2.498,2.499V54.854z M59.733,46.526v-1.205l0.852-0.852h1.205l0.853,0.852v1.205l-0.853,0.853h-1.205  L59.733,46.526z M63.525,28.029l-3.286,1.705l-3.528-1.119l-1.705-3.286l1.118-3.528l3.287-1.705l3.528,1.119l1.705,3.286  L63.525,28.029z M71.896,71.443l-1.216,1.216h-1.722l-1.216-1.216v-1.722l1.216-1.217h1.722l1.216,1.217V71.443z M72.286,64.662  l-1.889,1.888h-2.67l-1.89-1.888v-2.671l1.89-1.888h2.67l1.889,1.888V64.662z M77.848,59.574l-1.438,1.438h-2.032l-1.438-1.438  v-2.032l1.438-1.438h2.032l1.438,1.438V59.574z"/><polygon xmlns="http://www.w3.org/2000/svg" points="49.865,57.604 51.405,56.062 51.405,53.885 49.865,52.344 47.688,52.344 46.146,53.885 46.146,56.062   47.688,57.604 "/><polygon xmlns="http://www.w3.org/2000/svg" points="24.528,57.738 23.623,58.644 23.623,59.925 24.528,60.829 25.809,60.829 26.713,59.925 26.713,58.644   25.809,57.738 "/><polygon xmlns="http://www.w3.org/2000/svg" points="69.335,69.413 68.651,70.098 68.651,71.066 69.335,71.752 70.304,71.752 70.989,71.066 70.989,70.098   70.304,69.413 "/><polygon xmlns="http://www.w3.org/2000/svg" points="68.103,61.012 66.746,62.367 66.746,64.286 68.103,65.642 70.022,65.642 71.378,64.286 71.378,62.367   70.022,61.012 "/><polygon xmlns="http://www.w3.org/2000/svg" points="60.073,28.051 57.961,27.381 56.94,25.414 57.609,23.301 59.577,22.281 61.688,22.95 62.71,24.917 62.041,27.03 "/><polygon xmlns="http://www.w3.org/2000/svg" points="39.783,27.957 37.814,26.94 37.141,24.829 38.156,22.86 40.267,22.185 42.237,23.203 42.91,25.313 41.893,27.283   "/></g><g id="SvgjsG1068" featureKey="nkYPRc-0" transform="matrix(2.4259350299835205,0,0,2.4259350299835205,136.000000867582,19.444390397105572)" fill="#000"><path d="M7 6 l0.36 0 c2.2 0 4.06 0.96 5.62 2.88 l-0.06 0.04 l-2 0 c-1.14 -0.96 -2.3 -1.44 -3.52 -1.44 l-0.44 0 c-1.76 0 -3.24 0.86 -4.5 2.6 c-0.54 0.98 -0.82 1.96 -0.82 2.92 c0 1.94 0.88 3.5 2.64 4.7 c0.9 0.54 1.82 0.82 2.8 0.82 l0.2 0 c1.3 0 2.5 -0.48 3.64 -1.44 l2 0 c0.06 0 0.06 0.04 0.06 0.08 c-1.6 1.9 -3.48 2.84 -5.66 2.84 l-0.28 0 c-2.5 0 -4.54 -1.18 -6.14 -3.54 c-0.6 -1.16 -0.9 -2.24 -0.9 -3.26 l0 -0.4 c0 -2.24 1.08 -4.14 3.24 -5.68 c1.24 -0.76 2.48 -1.12 3.76 -1.12 z M18.96 10 l0.24 0 c1.76 0 3.2 0.82 4.3 2.42 c0.5 0.8 0.74 1.66 0.74 2.62 c0 1.8 -0.86 3.24 -2.58 4.32 c-0.78 0.42 -1.54 0.64 -2.24 0.64 l-0.7 0 c-1.26 0 -2.48 -0.6 -3.66 -1.84 c-0.74 -0.98 -1.1 -2 -1.1 -3.06 l0 -0.28 c0 -1.68 0.86 -3.08 2.62 -4.22 c0.82 -0.4 1.62 -0.6 2.38 -0.6 z M15.38 14.86 l0 0.32 c0 1.2 0.6 2.2 1.8 3.04 c0.64 0.34 1.22 0.5 1.74 0.5 l0.36 0 c1.26 0 2.32 -0.68 3.16 -2.02 c0.26 -0.6 0.38 -1.14 0.38 -1.66 l0 -0.04 c0 -1.56 -0.78 -2.72 -2.36 -3.48 c-0.48 -0.16 -0.94 -0.24 -1.36 -0.24 c-1.62 0 -2.8 0.84 -3.54 2.52 c-0.12 0.42 -0.18 0.78 -0.18 1.06 z M35.440000000000005 19.94 c0 0.04 -0.04 0.06 -0.08 0.06 l-1.26 0 c-0.06 0 -0.08 -0.02 -0.08 -0.06 l0 -1.46 c-1.08 1 -2.3 1.52 -3.66 1.52 c-0.98 0 -1.88 -0.24 -2.66 -0.7 c-1.68 -1.08 -2.5 -2.48 -2.5 -4.24 c0 -0.9 0.2 -1.7 0.6 -2.4 c1.08 -1.76 2.58 -2.66 4.52 -2.66 c1.4 0 2.64 0.52 3.7 1.54 l0 -4.82 c0 -0.04 0.02 -0.06 0.08 -0.06 l1.26 0 c0.04 0 0.08 0.02 0.08 0.06 l0 13.22 z M30.360000000000003 11.28 c-0.38 0 -0.84 0.1 -1.38 0.26 c-1.58 0.76 -2.36 1.92 -2.36 3.46 l0 0.02 c0 0.54 0.1 1.06 0.34 1.56 c0.78 1.44 1.92 2.16 3.4 2.16 c0.36 0 0.86 -0.12 1.48 -0.34 c1.46 -0.82 2.18 -1.9 2.18 -3.24 l0 -0.32 c0 -0.38 -0.12 -0.84 -0.32 -1.4 c-0.82 -1.44 -1.92 -2.16 -3.34 -2.16 z M41.400000000000006 10 l0.24 0 c1.9 0 3.42 0.92 4.52 2.76 c0.36 0.72 0.52 1.48 0.52 2.3 c0 0.42 -0.02 0.66 -0.1 0.66 l-8.68 0 l0 0.02 c0.06 0.58 0.4 1.24 1.02 1.96 c0.82 0.68 1.62 1.02 2.44 1.02 l0.36 0 c0.9 0 1.76 -0.4 2.6 -1.2 l1.58 0 c0.04 0 0.08 0.02 0.08 0.06 c-1.18 1.6 -2.56 2.42 -4.12 2.42 l-0.7 0 c-1.26 0 -2.48 -0.6 -3.66 -1.84 c-0.74 -0.98 -1.1 -2 -1.1 -3.06 l0 -0.28 c0 -1.68 0.86 -3.08 2.62 -4.22 c0.82 -0.4 1.62 -0.6 2.38 -0.6 z M37.900000000000006 14.280000000000001 l7.3 0 c-0.04 -0.5 -0.38 -1.12 -1 -1.9 c-0.8 -0.72 -1.7 -1.1 -2.66 -1.1 c-1.38 0 -2.46 0.64 -3.26 1.92 c-0.26 0.52 -0.38 0.88 -0.38 1.08 z M53.300000000000004 12.14 l0 1.42 l-4.16 0 l0 6.36 c0 0.06 -0.04 0.08 -0.08 0.08 l-1.32 0 c-0.06 -0.02 -0.08 -0.04 -0.08 -0.08 l0 -9.42 c0 -1.52 0.9 -2.8 2.72 -3.84 c0.9 -0.44 1.82 -0.66 2.8 -0.66 l0.12 0 l0 1.58 c-1.58 0 -2.84 0.66 -3.74 1.96 c-0.28 0.5 -0.42 1.06 -0.42 1.68 l0 0.92 l4.16 0 z M54.32000000000001 10 l1.28 0 c0.04 0 0.08 0.02 0.08 0.06 l0 1.46 c1.08 -1.02 2.26 -1.52 3.58 -1.52 l0.06 0 c0.06 0 0.08 0.02 0.08 0.06 l0 1.14 c0 0.06 -0.32 0.12 -0.96 0.18 c-0.96 0.3 -1.68 0.84 -2.2 1.6 c-0.38 0.68 -0.56 1.32 -0.56 1.88 l0 5.08 c0 0.04 -0.04 0.06 -0.08 0.06 l-1.28 0 c-0.04 0 -0.06 -0.02 -0.06 -0.06 l0 -9.88 c0 -0.04 0.02 -0.06 0.06 -0.06 z M65.38 10 l0.24 0 c1.76 0 3.2 0.82 4.3 2.42 c0.5 0.8 0.74 1.66 0.74 2.62 c0 1.8 -0.86 3.24 -2.58 4.32 c-0.78 0.42 -1.54 0.64 -2.24 0.64 l-0.7 0 c-1.26 0 -2.48 -0.6 -3.66 -1.84 c-0.74 -0.98 -1.1 -2 -1.1 -3.06 l0 -0.28 c0 -1.68 0.86 -3.08 2.62 -4.22 c0.82 -0.4 1.62 -0.6 2.38 -0.6 z M61.800000000000004 14.86 l0 0.32 c0 1.2 0.6 2.2 1.8 3.04 c0.64 0.34 1.22 0.5 1.74 0.5 l0.36 0 c1.26 0 2.32 -0.68 3.16 -2.02 c0.26 -0.6 0.38 -1.14 0.38 -1.66 l0 -0.04 c0 -1.56 -0.78 -2.72 -2.36 -3.48 c-0.48 -0.16 -0.94 -0.24 -1.36 -0.24 c-1.62 0 -2.8 0.84 -3.54 2.52 c-0.12 0.42 -0.18 0.78 -0.18 1.06 z M76.84 10 l0.26 0 c1.38 0 2.64 0.54 3.78 1.6 l0 -1.52 c0.02 -0.06 0.04 -0.08 0.08 -0.08 l1.34 0 c0.04 0 0.06 0.04 0.06 0.08 l0 9.34 c0 1.76 -0.94 3.1 -2.82 4.02 c-0.78 0.38 -1.62 0.56 -2.58 0.56 c-2.18 0 -3.82 -0.9 -4.92 -2.7 l0 -0.08 l1.84 0 c0.86 0.82 1.82 1.24 2.88 1.24 l0.42 0 c1.38 0 2.48 -0.6 3.32 -1.82 c0.28 -0.46 0.42 -0.92 0.42 -1.34 l0 -0.48 c-1.14 1.12 -2.44 1.66 -3.92 1.66 c-2.12 0 -3.78 -1 -4.94 -3.06 c-0.3 -0.74 -0.44 -1.42 -0.44 -2.08 l0 -0.3 c0 -1.76 0.92 -3.24 2.74 -4.42 c0.86 -0.42 1.68 -0.62 2.48 -0.62 z M73.10000000000001 15.08 l0 0.34 c0 1.24 0.62 2.3 1.88 3.18 c0.66 0.34 1.26 0.52 1.82 0.52 l0.38 0 c1.16 0 2.16 -0.56 3.04 -1.7 c0.44 -0.68 0.66 -1.44 0.66 -2.28 c0 -1.48 -0.78 -2.64 -2.3 -3.48 c-0.56 -0.22 -1.08 -0.32 -1.58 -0.32 c-1.68 0 -2.94 0.86 -3.72 2.62 c-0.12 0.44 -0.18 0.82 -0.18 1.12 z"/></g>
			</g>
		</svg>
	